<svg xmlns="http://www.w3.org/2000/svg" width="187.514" height="166.311" viewBox="0 0 187.514 166.311"><g transform="translate(-29.763 0)"><g transform="translate(29.879 102.399)"><path d="M11.4.551c6.38,0,10.469-4.93,10.469-10.933,0-5.974-4.089-10.9-10.469-10.9-6.409,0-10.469,4.93-10.469,10.9C.928-4.379,4.988.551,11.4.551Zm0-4.205c-2.32,0-3.741-1.914-3.741-6.728,0-4.785,1.421-6.7,3.741-6.7,2.291,0,3.741,1.914,3.741,6.7C15.138-5.568,13.688-3.654,11.4-3.654ZM24.621,0H29.58l-.029-2.726v-8.468l-.058-1.972h.058L33.988,0H37.7l4.437-13.166h.058l-.058,1.972v8.468L42.108,0h5.945l-.029-2.726V-18.009l.029-2.726h-7.83L36.4-9.976h-.058L32.451-20.735h-7.83l.029,2.726V-2.726ZM51.272-16.356h8.5v.058L50.431-2.349V0H67.686V-4.379H58.667v-.058L67.8-18.386v-2.349H51.272Zm32.8,3.683H76.56v-3.683h9.077v-4.379H70.528l.029,2.726V-2.726L70.528,0H85.811V-4.379H76.56V-8.294h7.511Zm20.445-3.683v-4.379H87.232v4.379h5.626v13.63L92.829,0h6.09L98.89-2.726v-13.63Z" transform="translate(42.67 28)" fill="#fff"/><text transform="translate(148.724 29)" fill="#fff" font-size="30" font-family="FranklinGothicATF-Heavy, Franklin Gothic ATF" font-weight="800"><tspan x="0" y="0"> </tspan></text><path d="M6.989,0h6.322l6.67-20.735H14.239L10.527-7.714h-.058L6.525-20.735H-.116ZM35.438-12.673H27.927v-3.683H37v-4.379H21.9l.029,2.726V-2.726L21.9,0H37.178V-4.379H27.927V-8.294h7.511ZM58.261,0V-.058l-4-8.758a5.865,5.865,0,0,0,3.654-5.713c0-4.959-4.118-6.206-7.946-6.206H39.933l.029,2.726V-2.726L39.933,0h6.061l-.029-2.726v-5.22H48.6L51.562,0Zm-12.3-16.559h2.987c1.682,0,2.958.493,2.958,2.233,0,1.624-1.276,2.2-2.784,2.2H45.965ZM79.4,0l-.029-2.726V-18.009l.029-2.726H73.341l.029,2.726v5.278h-6.5v-5.278l.029-2.726H60.842l.029,2.726V-2.726L60.842,0H66.9l-.029-2.726V-8.352h6.5v5.626L73.341,0ZM92.626.551c6.38,0,10.469-4.93,10.469-10.933,0-5.974-4.089-10.9-10.469-10.9-6.409,0-10.469,4.93-10.469,10.9C82.157-4.379,86.217.551,92.626.551Zm0-4.205c-2.32,0-3.741-1.914-3.741-6.728,0-4.785,1.421-6.7,3.741-6.7,2.291,0,3.741,1.914,3.741,6.7C96.367-5.568,94.917-3.654,92.626-3.654Zm32.19-4.93.029-2.726h-9.454v3.77h3.8a3.671,3.671,0,0,1-3.77,3.886c-2.03,0-4.031-1.769-4.031-6.67,0-4.93,1.885-6.757,3.973-6.757a3.872,3.872,0,0,1,3.654,3.335l5.6-1.015c-1.1-4.553-4.9-6.525-9.135-6.525-5.829,0-10.5,3.828-10.5,10.991,0,7.221,4.5,10.846,9.831,10.846a7.008,7.008,0,0,0,6.235-2.929h.058L121.481,0h3.335Zm16.7-4.089h-7.511v-3.683h9.077v-4.379H127.977l.029,2.726V-2.726L127.977,0H143.26V-4.379h-9.251V-8.294h7.511Zm17.632-5.336v5.858l.058,1.827h-.058l-7.8-10.411h-5.336l.029,2.726V-2.726L146.015,0h5.162l-.029-2.726V-9.8l-.058-1.827h.058L159.819,0h4.466l-.029-2.726V-18.009l.029-2.726h-5.162Zm9.106,0V-2.726L168.229,0h8.642C182.584,0,187.4-2.871,187.4-10.208c0-7.076-4.582-10.527-10.527-10.527h-8.642Zm6,1.45h1.914c3.1,0,5.075,1.74,5.075,6.293s-2,6.119-5.075,6.119h-1.914Z" transform="translate(0 63.361)" fill="#fff"/></g><g transform="translate(0 0)"><g transform="translate(101.973 70.944)"><path d="M3.5,0V2.4a6.357,6.357,0,0,1,6.532,6.259,6.394,6.394,0,0,1-1.819,4.661,6.588,6.588,0,0,1-4.641,1.966l-.116,0a6.455,6.455,0,0,1-6.5-6.557,6.052,6.052,0,0,1,1.82-4.383A6.632,6.632,0,0,1,3.472,2.4Zm0,0H3.464A8.862,8.862,0,0,0-5.493,8.77a8.906,8.906,0,0,0,8.948,8.922h.157a8.889,8.889,0,0,0,8.863-9.084A8.79,8.79,0,0,0,3.5,0" transform="translate(5.494)" fill="#fff"/></g><g transform="translate(133.946 70.932)"><path d="M3.537,0V2.4a6.533,6.533,0,0,1,6.475,6.37A6.412,6.412,0,0,1,8.084,13.4a6.556,6.556,0,0,1-4.651,1.9,6.523,6.523,0,0,1-6.54-6.45A6.48,6.48,0,0,1,3.53,2.4Zm0,0H3.525A8.894,8.894,0,0,0-5.551,8.85,8.949,8.949,0,0,0,3.425,17.7h.033a8.953,8.953,0,0,0,9-8.944A8.968,8.968,0,0,0,3.537,0" transform="translate(5.551)" fill="#fff"/></g><g transform="translate(70.651 16.513)"><path d="M0,0H15.929a2.127,2.127,0,0,1,2.077,1.45L31.414,47.325a2.126,2.126,0,0,0,2.077,1.452H78.656a2.127,2.127,0,0,0,2.077-1.45L90.763,15.539a2,2,0,0,0-2.076-2.454H76.644" fill="none" stroke="#fff" stroke-linecap="round" stroke-width="1"/></g></g><g transform="translate(108.144 42.041)"><path d="M13.156,0l15.7.244m-40.8,6.149,2.374,16.721M8.973,6.393,6.581,23.021m-27.23-10.5H25.422" transform="translate(20.649)" fill="none" stroke="#fff" stroke-linecap="round" stroke-width="1"/></g><g transform="translate(0 0)"><g transform="translate(140.456 0)"><path d="M1.65,4.091C.417,3.145-.789,2.164-1.984,1.173-2.844.463-2.8.191-1.771-.138,4.71-2.206,11.2-4.249,17.681-6.323c.861-.275.963.043.876.778q-1.169,9.985-2.292,19.974c-.111.99-.409,1.092-1.151.483-1.262-1.036-2.565-2.027-3.813-3.079" transform="translate(2.59 6.421)" fill="#fff"/></g></g><g transform="translate(109.28 12.066)"><path d="M0,11.472,14.379-2.013l7.788,6.388L41.316-18.006" transform="translate(0 18.006)" fill="none" stroke="#fff" stroke-linecap="round" stroke-linejoin="round" stroke-width="3"/></g></g></svg>