<svg xmlns="http://www.w3.org/2000/svg" width="184.254" height="132.072" viewBox="0 0 184.254 132.072"><g transform="translate(-113.924 0.001)"><path d="M1.827,0H6.786L6.757-2.726v-8.468L6.7-13.166h.058L11.194,0h3.712l4.437-13.166H19.4l-.058,1.972v8.468L19.314,0h5.945L25.23-2.726V-18.009l.029-2.726h-7.83L13.6-9.976h-.058L9.657-20.735H1.827l.029,2.726V-2.726ZM35.264,0l-.029-2.726V-18.009l.029-2.726H29.2l.029,2.726V-2.726L29.2,0ZM52.345-18.009v5.858l.058,1.827h-.058l-7.8-10.411H39.208l.029,2.726V-2.726L39.208,0H44.37l-.029-2.726V-9.8l-.058-1.827h.058L53.012,0h4.466l-.029-2.726V-18.009l.029-2.726H52.316ZM67.483,0l-.029-2.726V-18.009l.029-2.726H61.422l.029,2.726V-2.726L61.422,0ZM96.251-8.584l.029-2.726H86.826v3.77h3.8a3.671,3.671,0,0,1-3.77,3.886c-2.03,0-4.031-1.769-4.031-6.67,0-4.93,1.885-6.757,3.973-6.757a3.872,3.872,0,0,1,3.654,3.335l5.6-1.015c-1.1-4.553-4.9-6.525-9.135-6.525-5.829,0-10.5,3.828-10.5,10.991,0,7.221,4.5,10.846,9.831,10.846a7.008,7.008,0,0,0,6.235-2.929h.058L92.916,0h3.335ZM104.081-4h6.409l1.131,4h6.438l-7.105-20.735H104.69L97.382,0h5.452Zm3.364-10.875h.058l1.856,6.786h-4ZM119.8,0h4.959l-.029-2.726v-8.468l-.058-1.972h.058L129.166,0h3.712l4.437-13.166h.058l-.058,1.972v8.468L137.286,0h5.945L143.2-2.726V-18.009l.029-2.726H135.4L131.573-9.976h-.058l-3.886-10.759H119.8l.029,2.726V-2.726Zm40.919-12.673h-7.511v-3.683h9.077v-4.379H147.175l.029,2.726V-2.726L147.175,0h15.283V-4.379h-9.251V-8.294h7.511Z" transform="translate(120.773 93.563)" fill="#fff"/><g transform="translate(113.273 107.473)"><path d="M4.683,0H6.405l3.948-10.479H8.946L5.586-.945H5.544l-3.4-9.534H.651ZM17.01.294A5.26,5.26,0,0,0,22.2-5.229a5.266,5.266,0,0,0-5.187-5.544,5.266,5.266,0,0,0-5.187,5.544A5.26,5.26,0,0,0,17.01.294Zm0-1.155c-2.142,0-3.759-1.764-3.759-4.368,0-2.625,1.617-4.389,3.759-4.389s3.759,1.764,3.759,4.389C20.769-2.625,19.152-.861,17.01-.861ZM29.61.294A5.26,5.26,0,0,0,34.8-5.229a5.266,5.266,0,0,0-5.187-5.544,5.266,5.266,0,0,0-5.187,5.544A5.26,5.26,0,0,0,29.61.294Zm0-1.155c-2.142,0-3.759-1.764-3.759-4.368,0-2.625,1.617-4.389,3.759-4.389s3.759,1.764,3.759,4.389C33.369-2.625,31.752-.861,29.61-.861ZM39.1-4.494c.231-2.247,1.911-4.977,4.032-4.977a3.108,3.108,0,0,1,.42.021v-1.281a2.361,2.361,0,0,0-.42-.042c-1.512,0-3.129,1.092-4.011,3.822h-.042v-3.528H37.716l.021,1.848v6.8L37.716,0h1.407L39.1-1.827ZM58.464-2.5A5.144,5.144,0,0,1,54.873-.861c-2.289,0-3.843-1.6-3.843-4.158V-5.1h8.4c.126-2.793-1.2-5.67-4.788-5.67-2.856,0-5.019,2.184-5.019,5.754,0,3.444,2.163,5.313,5.145,5.313A5.976,5.976,0,0,0,59.283-1.7Zm-3.78-7.14A3.235,3.235,0,0,1,57.96-6.174H51.114C51.45-8.526,52.857-9.639,54.684-9.639ZM69.006,0h1.638V-.042L66.57-5.586l3.549-4.851v-.042H68.586L65.751-6.405l-2.772-4.074H61.362v.042l3.57,4.914L60.921-.042V0h1.533l3.3-4.7Zm8.946-10.479H75.033v-2.982H73.878l-.21,2.982H71.673v1.092h1.974V-2.2c0,2.037,1.092,2.5,2.436,2.5a5.127,5.127,0,0,0,1.932-.357V-1.2a4.821,4.821,0,0,1-1.722.357c-.924,0-1.26-.42-1.26-1.47V-9.387h2.919Zm4.053,5.985c.231-2.247,1.911-4.977,4.032-4.977a3.108,3.108,0,0,1,.42.021v-1.281a2.361,2.361,0,0,0-.42-.042c-1.512,0-3.129,1.092-4.011,3.822h-.042v-3.528H80.619l.021,1.848v6.8L80.619,0h1.407l-.021-1.827ZM88.956-7.98a3.843,3.843,0,0,1,3.339-1.7c1.764,0,2.877.8,2.877,2.709v.567c-2.142,0-7.476.126-7.476,3.822C87.7-.441,89.46.273,91.014.273A4.6,4.6,0,0,0,95.13-2.289h.042c.042.714.105,1.6.189,2.289h1.323A21.3,21.3,0,0,1,96.5-2.772V-6.951c0-2.772-1.869-3.822-4.116-3.822a4.862,4.862,0,0,0-4.305,2.1ZM91.224-.8c-1.239,0-2.1-.63-2.1-1.827,0-2.415,3.612-2.793,6.048-2.814v.294A4.088,4.088,0,0,1,91.224-.8ZM106.26,0l.168-2.331h.042A3.8,3.8,0,0,0,110.145.294c2.436,0,4.725-1.911,4.725-5.523,0-3.234-1.89-5.544-4.683-5.544a3.773,3.773,0,0,0-3.675,2.52h-.042v-4.914l.021-1.848h-1.407l.021,1.848V-1.806L105.084,0ZM110-9.618c2.142,0,3.423,1.722,3.423,4.347,0,2.688-1.344,4.41-3.4,4.41-1.827,0-3.591-1.428-3.591-4.305V-5.25C106.428-8.022,107.94-9.618,110-9.618ZM126-2.5a5.144,5.144,0,0,1-3.591,1.638c-2.289,0-3.843-1.6-3.843-4.158V-5.1h8.4c.126-2.793-1.2-5.67-4.788-5.67-2.856,0-5.019,2.184-5.019,5.754,0,3.444,2.163,5.313,5.145,5.313A5.976,5.976,0,0,0,126.819-1.7Zm-3.78-7.14A3.235,3.235,0,0,1,125.5-6.174H118.65C118.986-8.526,120.393-9.639,122.22-9.639Zm9.135-3.528.021-1.848h-1.407l.021,1.848v11.34L129.969,0h1.407l-.021-1.827ZM143.2-2.5a5.144,5.144,0,0,1-3.591,1.638c-2.289,0-3.843-1.6-3.843-4.158V-5.1h8.4c.126-2.793-1.2-5.67-4.788-5.67-2.856,0-5.019,2.184-5.019,5.754,0,3.444,2.163,5.313,5.145,5.313A5.976,5.976,0,0,0,144.018-1.7Zm-3.78-7.14A3.235,3.235,0,0,1,142.7-6.174h-6.846C136.185-8.526,137.592-9.639,139.419-9.639ZM149.6,0h1.722l3.948-10.479h-1.407l-3.36,9.534h-.042l-3.4-9.534h-1.491Zm9.555,0-.021-1.827v-6.8l.021-1.848h-1.407l.021,1.848v6.8L157.752,0Zm-.021-12.684v-2.331h-1.365v2.331ZM171.759,0l-.021-1.827V-6.594c0-2.73-1.365-4.179-3.57-4.179a4.759,4.759,0,0,0-3.99,2.331h-.042v-2.037h-1.365l.021,1.848v6.8L162.771,0h1.407l-.021-1.827V-6.909a4.5,4.5,0,0,1,3.822-2.667c1.575,0,2.373,1.05,2.373,3.108v4.641L170.331,0Zm7.266-3.738c2.52,0,4.137-1.386,4.137-3.528a3.387,3.387,0,0,0-.63-2.016,1.493,1.493,0,0,1,1.491-.924,3.762,3.762,0,0,1,.882.105v-1.113a2.09,2.09,0,0,0-.819-.147A2.358,2.358,0,0,0,181.9-9.933a4.708,4.708,0,0,0-2.856-.84c-2.541,0-4.137,1.407-4.137,3.549a3.175,3.175,0,0,0,1.3,2.688A2.132,2.132,0,0,0,174.762-2.6,2.309,2.309,0,0,0,176.5-.546V-.5a2.6,2.6,0,0,0-2.331,2.478c0,1.89,2.184,2.625,4.914,2.625,2.982,0,5.565-.861,5.565-3.3,0-1.638-1.113-2.667-3.612-2.73l-2.751-.084c-1.239-.042-2.226-.525-2.226-1.449a1.165,1.165,0,0,1,.924-1.134A5.435,5.435,0,0,0,179.025-3.738ZM181.041-.21c1.848.063,2.268.966,2.268,1.722,0,1.449-1.512,2.037-4.011,2.037-2.562,0-3.759-.651-3.759-1.764,0-1.008.966-1.743,2.289-2.079Zm-2.016-4.578c-1.764,0-2.835-.84-2.835-2.457,0-1.6,1.071-2.478,2.835-2.478,1.785,0,2.835.861,2.835,2.478C181.86-5.649,180.789-4.788,179.025-4.788Z" transform="translate(0 20)" fill="#fff"/></g><g transform="translate(0 0)"><g transform="translate(125.334 -0.001)"><path d="M15.887.39A8.989,8.989,0,0,1,24.938,9.3V39.554a8.99,8.99,0,0,1-9.052,8.906H-14.866a8.99,8.99,0,0,1-9.052-8.906V9.3A8.989,8.989,0,0,1-14.866.39Zm0-1H-14.866A9.99,9.99,0,0,0-24.936,9.3V39.554a9.989,9.989,0,0,0,10.07,9.906H15.887a9.989,9.989,0,0,0,10.07-9.906V9.3A9.99,9.99,0,0,0,15.887-.612" transform="translate(24.936 0.612)" fill="#fff"/></g><g transform="translate(143.016 8.261)"><path d="M1.264,7.744c.049-1.4.395-2.179,1.526-2.565A17.33,17.33,0,0,0,4.856,4.4c1.87-.968,3.2-3.775,3.2-5.858,0-1.791-.493-3.389-1.673-4.067-1.428-.871-2.952.29-4.379.29A4.768,4.768,0,0,1-1.984-6.877c.393-1.888.787-5.326,4.232-5.278C2.692-9.781,3.379-9.346,5.84-9.346c3.3,0,5.856.918,7.431,2.808A6.124,6.124,0,0,1,14.8-2.375C14.8,1.6,11.7,6,5.987,6.777l-.589,4.5-3.79,1.064a22.191,22.191,0,0,1-.344-4.6M3.479,14.91a3.486,3.486,0,0,1,0,6.971,3.487,3.487,0,0,1,0-6.971" transform="translate(1.984 12.155)" fill="#fff"/></g><g transform="translate(180.274 -0.001)"><path d="M15.887.39A8.989,8.989,0,0,1,24.938,9.3V39.554a8.99,8.99,0,0,1-9.052,8.906H-14.866a8.991,8.991,0,0,1-9.052-8.906V9.3A8.99,8.99,0,0,1-14.866.39Zm0-1H-14.866A9.99,9.99,0,0,0-24.936,9.3V39.554a9.989,9.989,0,0,0,10.07,9.906H15.887a9.989,9.989,0,0,0,10.07-9.906V9.3A9.99,9.99,0,0,0,15.887-.612" transform="translate(24.936 0.612)" fill="#fff"/></g><g transform="translate(197.956 8.261)"><path d="M1.264,7.744c.049-1.4.393-2.179,1.526-2.565A17.33,17.33,0,0,0,4.856,4.4c1.87-.968,3.2-3.775,3.2-5.858,0-1.791-.493-3.389-1.673-4.067-1.428-.871-2.953.29-4.379.29A4.768,4.768,0,0,1-1.984-6.877c.393-1.888.787-5.326,4.232-5.278C2.692-9.781,3.379-9.346,5.84-9.346c3.3,0,5.856.918,7.431,2.808A6.124,6.124,0,0,1,14.8-2.375C14.8,1.6,11.7,6,5.987,6.777l-.589,4.5-3.79,1.064a22.191,22.191,0,0,1-.344-4.6M3.479,14.91a3.486,3.486,0,0,1,0,6.971,3.487,3.487,0,0,1,0-6.971" transform="translate(1.984 12.155)" fill="#fff"/></g><g transform="translate(235.318 -0.001)"><path d="M15.887.39A8.989,8.989,0,0,1,24.938,9.3V39.554a8.99,8.99,0,0,1-9.052,8.906H-14.866a8.991,8.991,0,0,1-9.052-8.906V9.3A8.99,8.99,0,0,1-14.866.39Zm0-1H-14.866A9.99,9.99,0,0,0-24.936,9.3V39.554a9.989,9.989,0,0,0,10.07,9.906H15.887a9.989,9.989,0,0,0,10.07-9.906V9.3A9.99,9.99,0,0,0,15.887-.612" transform="translate(24.936 0.612)" fill="#fff"/></g><g transform="translate(253 8.261)"><path d="M1.264,7.744c.049-1.4.393-2.179,1.526-2.565A17.33,17.33,0,0,0,4.856,4.4c1.87-.968,3.2-3.775,3.2-5.858,0-1.791-.493-3.389-1.673-4.067-1.428-.871-2.953.29-4.379.29A4.768,4.768,0,0,1-1.984-6.877c.393-1.888.787-5.326,4.232-5.278C2.692-9.781,3.379-9.346,5.84-9.346c3.3,0,5.856.918,7.431,2.808A6.124,6.124,0,0,1,14.8-2.375C14.8,1.6,11.7,6,5.987,6.777l-.589,4.5-3.79,1.064a22.191,22.191,0,0,1-.344-4.6M3.479,14.91a3.486,3.486,0,0,1,0,6.971,3.487,3.487,0,0,1,0-6.971" transform="translate(1.984 12.155)" fill="#fff"/></g></g></g></svg>