<svg xmlns="http://www.w3.org/2000/svg" width="239.221" height="183.697" viewBox="0 0 239.221 183.697"><g transform="translate(-80.8 -0.001)"><path d="M15.109-7.627c-.406,2.378-1.769,3.973-3.77,3.973-1.885,0-3.886-1.334-3.886-6.757,0-4.64,1.624-6.67,3.712-6.67,2.059,0,3.132,1.856,3.6,3.683l5.6-.725a8.779,8.779,0,0,0-9.048-7.163C5.22-21.286.957-16.878.957-10.15.957-3.1,5.568.551,11.107.551a9.3,9.3,0,0,0,9.454-7.018ZM41.209,0V-.058l-4-8.758a5.865,5.865,0,0,0,3.654-5.713c0-4.959-4.118-6.206-7.946-6.206H22.881l.029,2.726V-2.726L22.881,0h6.061l-.029-2.726v-5.22h2.639L34.51,0Zm-12.3-16.559H31.9c1.682,0,2.958.493,2.958,2.233,0,1.624-1.276,2.2-2.784,2.2H28.913ZM53.36.551c6.38,0,10.469-4.93,10.469-10.933,0-5.974-4.089-10.9-10.469-10.9-6.409,0-10.469,4.93-10.469,10.9C42.891-4.379,46.951.551,53.36.551Zm0-4.205c-2.32,0-3.741-1.914-3.741-6.728,0-4.785,1.421-6.7,3.741-6.7,2.291,0,3.741,1.914,3.741,6.7C57.1-5.568,55.651-3.654,53.36-3.654Zm30.508-14.3A13.849,13.849,0,0,0,74.7-21.286c-5.452,0-8.729,3.074-8.729,7.105,0,4,3.19,5.452,6.9,6.148,2.61.493,5.6.58,5.6,2.494,0,1.421-1.624,2-3.422,2a9.232,9.232,0,0,1-6.583-2.784l-3.1,3.074a13.448,13.448,0,0,0,9.773,3.8c5.829,0,9.309-3.074,9.309-7.192,0-4.031-3.364-5.655-7.337-6.38-2.552-.464-5.191-.493-5.191-2.233,0-1.3,1.45-1.943,3.248-1.943a7.932,7.932,0,0,1,5.6,2.349Zm20.242,0a13.849,13.849,0,0,0-9.164-3.335c-5.452,0-8.729,3.074-8.729,7.105,0,4,3.19,5.452,6.9,6.148,2.61.493,5.6.58,5.6,2.494,0,1.421-1.624,2-3.422,2a9.232,9.232,0,0,1-6.583-2.784l-3.1,3.074a13.448,13.448,0,0,0,9.773,3.8c5.829,0,9.309-3.074,9.309-7.192,0-4.031-3.364-5.655-7.337-6.38-2.552-.464-5.191-.493-5.191-2.233,0-1.3,1.45-1.943,3.248-1.943a7.932,7.932,0,0,1,5.6,2.349Zm2.842,11.919h7.308V-11.31h-7.308ZM134.56-17.951a13.849,13.849,0,0,0-9.164-3.335c-5.452,0-8.729,3.074-8.729,7.105,0,4,3.19,5.452,6.9,6.148,2.61.493,5.6.58,5.6,2.494,0,1.421-1.624,2-3.422,2a9.232,9.232,0,0,1-6.583-2.784l-3.1,3.074a13.448,13.448,0,0,0,9.773,3.8c5.829,0,9.309-3.074,9.309-7.192,0-4.031-3.364-5.655-7.337-6.38-2.552-.464-5.191-.493-5.191-2.233,0-1.3,1.45-1.943,3.248-1.943a7.932,7.932,0,0,1,5.6,2.349Zm16.675,5.278h-7.511v-3.683H152.8v-4.379H137.692l.029,2.726V-2.726L137.692,0h15.283V-4.379h-9.251V-8.294h7.511ZM170.172,0V-4.379h-8.41v-13.63l.029-2.726H155.73l.029,2.726V-2.726L155.73,0Zm16.762,0V-4.379h-8.41v-13.63l.029-2.726h-6.061l.029,2.726V-2.726L172.492,0Zm8.381,0-.029-2.726V-18.009l.029-2.726h-6.061l.029,2.726V-2.726L189.254,0ZM212.4-18.009v5.858l.058,1.827H212.4l-7.8-10.411h-5.336l.029,2.726V-2.726L199.259,0h5.162l-.029-2.726V-9.8l-.058-1.827h.058L213.063,0h4.466L217.5-2.726V-18.009l.029-2.726h-5.162Zm27.753,9.425.029-2.726h-9.454v3.77h3.8a3.671,3.671,0,0,1-3.77,3.886c-2.03,0-4.031-1.769-4.031-6.67,0-4.93,1.885-6.757,3.973-6.757a3.872,3.872,0,0,1,3.654,3.335l5.6-1.015c-1.1-4.553-4.9-6.525-9.135-6.525-5.829,0-10.5,3.828-10.5,10.991,0,7.221,4.495,10.846,9.831,10.846a7.008,7.008,0,0,0,6.235-2.929h.058L236.814,0h3.335Z" transform="translate(79.843 148.458)" fill="#fff"/><g transform="translate(122.067 162.368)"><path d="M7.172-10.978H4.114V-14.1H2.9l-.22,3.124H.594v1.144H2.662V-2.31C2.662-.176,3.806.308,5.214.308A5.372,5.372,0,0,0,7.238-.066V-1.254a5.051,5.051,0,0,1-1.8.374c-.968,0-1.32-.44-1.32-1.54V-9.834H7.172Zm2.662,0,.022,1.914V-4.07c0,2.86,1.43,4.378,3.74,4.378a4.985,4.985,0,0,0,4.18-2.464h.044V0h1.43l-.022-1.936V-9.064l.022-1.914h-1.5l.022,1.914V-3.74a4.714,4.714,0,0,1-4,2.794c-1.65,0-2.486-1.1-2.486-3.256V-9.064l.022-1.914Zm12.3,9.24A6.4,6.4,0,0,0,27.126.33c2.948,0,4.4-1.474,4.4-3.388,0-2.552-2.552-2.97-4.466-3.234-1.65-.264-3.212-.506-3.212-1.892,0-1.3,1.364-1.98,2.838-1.98a4.953,4.953,0,0,1,3.586,1.65l.858-.88A6.07,6.07,0,0,0,26.6-11.308c-2.662,0-4.114,1.452-4.114,3.256,0,2.332,2.354,2.772,4.334,3.08,1.606.264,3.344.44,3.344,2.024,0,1.452-1.452,2.134-3.08,2.134A5.616,5.616,0,0,1,22.99-2.6Zm11.44,0A6.4,6.4,0,0,0,38.566.33c2.948,0,4.4-1.474,4.4-3.388,0-2.552-2.552-2.97-4.466-3.234-1.65-.264-3.212-.506-3.212-1.892,0-1.3,1.364-1.98,2.838-1.98a4.953,4.953,0,0,1,3.586,1.65l.858-.88a6.07,6.07,0,0,0-4.532-1.914c-2.662,0-4.114,1.452-4.114,3.256,0,2.332,2.354,2.772,4.334,3.08,1.606.264,3.344.44,3.344,2.024,0,1.452-1.452,2.134-3.08,2.134A5.616,5.616,0,0,1,34.43-2.6Zm20.922-.88A5.389,5.389,0,0,1,50.732-.9c-2.4,0-4.026-1.672-4.026-4.356v-.088h8.8c.132-2.926-1.254-5.94-5.016-5.94-2.992,0-5.258,2.288-5.258,6.028,0,3.608,2.266,5.566,5.39,5.566a6.261,6.261,0,0,0,4.73-2.09Zm-3.96-7.48a3.389,3.389,0,0,1,3.432,3.63H46.794C47.146-8.932,48.62-10.1,50.534-10.1ZM68.024,0,68-1.914V-6.908c0-2.86-1.43-4.378-3.74-4.378a4.985,4.985,0,0,0-4.18,2.442h-.044v-2.134h-1.43l.022,1.936v7.128L58.608,0h1.474L60.06-1.914V-7.238a4.714,4.714,0,0,1,4-2.794c1.65,0,2.486,1.1,2.486,3.256v4.862L66.528,0Zm10.89,0h1.21L82.9-8.976h.044L85.668,0H86.9l3.476-10.978H88.9l-2.53,9.2h-.044l-2.772-9.2h-1.21l-2.772,9.2H79.53l-2.552-9.2H75.46Zm15.62,0-.022-1.914V-9.042l.022-1.936H93.06l.022,1.936v7.128L93.06,0Zm-.022-13.288V-15.73h-1.43v2.442ZM107.734,0l-.022-1.914V-6.908c0-2.86-1.43-4.378-3.74-4.378a4.985,4.985,0,0,0-4.18,2.442h-.044v-2.134h-1.43l.022,1.936v7.128L98.318,0h1.474L99.77-1.914V-7.238a4.714,4.714,0,0,1,4-2.794c1.65,0,2.486,1.1,2.486,3.256v4.862L106.238,0ZM121.11,0V-.044l-4.818-6.688,4.532-4.2v-.044h-1.738l-6.2,5.962h-.044v-8.69l.022-2.024h-1.474l.022,2.024V-2.024L111.386,0h1.474l-.022-2.024v-1.5l2.53-2.354L119.482,0Zm10.362-2.618A5.389,5.389,0,0,1,127.71-.9c-2.4,0-4.026-1.672-4.026-4.356v-.088h8.8c.132-2.926-1.254-5.94-5.016-5.94-2.992,0-5.258,2.288-5.258,6.028,0,3.608,2.266,5.566,5.39,5.566a6.261,6.261,0,0,0,4.73-2.09Zm-3.96-7.48a3.389,3.389,0,0,1,3.432,3.63h-7.172C124.124-8.932,125.6-10.1,127.512-10.1Zm9.57-3.7.022-1.936H135.63l.022,1.936v11.88L135.63,0H137.1l-.022-1.914Zm2.926,12.056A6.4,6.4,0,0,0,145,.33c2.948,0,4.4-1.474,4.4-3.388,0-2.552-2.552-2.97-4.466-3.234-1.65-.264-3.212-.506-3.212-1.892,0-1.3,1.364-1.98,2.838-1.98a4.953,4.953,0,0,1,3.586,1.65l.858-.88a6.07,6.07,0,0,0-4.532-1.914c-2.662,0-4.114,1.452-4.114,3.256,0,2.332,2.354,2.772,4.334,3.08,1.606.264,3.344.44,3.344,2.024,0,1.452-1.452,2.134-3.08,2.134A5.616,5.616,0,0,1,140.866-2.6Z" transform="translate(0 21)" fill="#fff"/></g><g transform="translate(166.132 1.104)"><path d="M11.871,7.673A132.978,132.978,0,0,1,28.021-2.3,40.556,40.556,0,0,1,44.274-6.853c.64-.028.828-.3.815-.9-.026-1.175-.018-2.353,0-3.53.013-.843.193-.951.877-.511,4.309,2.777,8.608,5.571,12.92,8.343.573.368.434.581-.043.887Q52.369,1.59,45.913,5.77c-.638.414-.84.29-.832-.437.013-1.238-.02-2.475.01-3.711.016-.642-.239-.856-.861-.807a34.071,34.071,0,0,0-11.047,2.87c-7.8,3.425-14.495,8.614-21.528,13.269C6.141,20.6.571,24.139-5.677,26.454A38.164,38.164,0,0,1-17.767,28.9c-.652.021-.874-.2-.864-.815.018-1,0-1.992,0-2.988,0-1.025.01-2.051,0-3.076-.007-.557.211-.827.8-.841C-12.2,21.052-7.112,19.1-2.21,16.5c1.974-1.044,3.883-2.192,5.782-3.364" transform="translate(18.632 12.044)" fill="#fff"/></g><g transform="translate(161.293 0.001)"><path d="M18.443,7.673A132.978,132.978,0,0,0,2.293-2.3,40.556,40.556,0,0,0-13.96-6.853c-.64-.028-.828-.3-.815-.9.026-1.175.018-2.353,0-3.53-.013-.843-.193-.951-.877-.511-4.31,2.778-8.608,5.571-12.92,8.343-.573.368-.434.583.043.887q6.476,4.15,12.93,8.33c.64.414.841.29.833-.437-.013-1.238.02-2.475-.01-3.711-.016-.64.239-.856.861-.807A34.071,34.071,0,0,1-2.869,3.684C4.93,7.109,11.626,12.3,18.659,16.953c5.514,3.647,11.083,7.189,17.332,9.5A38.164,38.164,0,0,0,48.081,28.9c.652.021.874-.2.863-.815-.016-1,0-1.991,0-2.986,0-1.026-.011-2.053,0-3.078.007-.557-.211-.827-.8-.84-5.635-.133-10.723-2.087-15.625-4.68-1.974-1.046-3.883-2.194-5.782-3.366" transform="translate(28.948 12.044)" fill="#fff"/></g><g transform="translate(241.088 83.693)"><path d="M2.649,0,2.67,1.852a4.988,4.988,0,0,1,3.562,1.5,4.7,4.7,0,0,1,1.38,3.379,4.935,4.935,0,0,1-4.929,5.054l-.088,0A4.945,4.945,0,0,1-.924,10.27,4.975,4.975,0,0,1-2.3,6.678,4.856,4.856,0,0,1,2.649,1.852Zm0,0a6.714,6.714,0,0,0-6.8,6.635,6.8,6.8,0,0,0,6.719,7h.12A6.807,6.807,0,0,0,9.464,6.761,6.773,6.773,0,0,0,2.676,0Z" transform="translate(4.157)" fill="#fff"/></g><g transform="translate(216.83 83.684)"><path d="M2.631,0l.007,1.852a4.953,4.953,0,0,1,5.028,4.97A4.989,4.989,0,0,1,2.69,11.8,4.913,4.913,0,0,1-.815,10.332a4.963,4.963,0,0,1,3.446-8.48Zm0,0A6.824,6.824,0,0,0,2.69,13.647h.025a6.84,6.84,0,0,0,6.8-6.823A6.8,6.8,0,0,0,2.639,0Z" transform="translate(4.129)" fill="#fff"/></g><g transform="translate(209.799 41.893)"><path d="M26.64,0h-12A1.6,1.6,0,0,0,13.07,1.11L2.967,36.172A1.606,1.606,0,0,1,1.4,37.28H-32.635A1.6,1.6,0,0,1-34.2,36.172l-7.559-24.295A1.524,1.524,0,0,1-40.193,10H4.969" transform="translate(41.814)" fill="none" stroke="#fff" stroke-linecap="round" stroke-width="0.884"/></g><g transform="translate(212.219 52)"><path d="M16.04,3.557H-25.177M8.038-5.583,4.53,21.244M-10.846-5.508-8.01,21.244m21.1-7.78h-35.2" transform="translate(25.177 5.583)" fill="none" stroke="#fff" stroke-linecap="round" stroke-width="0.884"/></g><g transform="translate(150.648 83.693)"><path d="M2.653,0,2.631,1.852a4.988,4.988,0,0,0-3.562,1.5,4.7,4.7,0,0,0-1.38,3.379,4.935,4.935,0,0,0,4.929,5.054l.088,0A4.945,4.945,0,0,0,6.225,10.27,4.975,4.975,0,0,0,7.6,6.678,4.856,4.856,0,0,0,2.653,1.852Zm0,0a6.714,6.714,0,0,1,6.8,6.635,6.8,6.8,0,0,1-6.719,7h-.12A6.807,6.807,0,0,1-4.163,6.761,6.773,6.773,0,0,1,2.625,0Z" transform="translate(4.163)" fill="#fff"/></g><g transform="translate(174.881 83.684)"><path d="M2.68,0,2.674,1.852a4.953,4.953,0,0,0-5.028,4.97A4.989,4.989,0,0,0,2.621,11.8a4.913,4.913,0,0,0,3.505-1.464A4.963,4.963,0,0,0,2.68,1.852Zm0,0a6.824,6.824,0,0,1-.059,13.647H2.6a6.84,6.84,0,0,1-6.8-6.823A6.8,6.8,0,0,1,2.672,0Z" transform="translate(4.207)" fill="#fff"/></g><g transform="translate(127.105 41.893)"><path d="M0,0H12A1.6,1.6,0,0,1,13.57,1.11l10.1,35.062a1.606,1.606,0,0,0,1.567,1.108H59.275a1.6,1.6,0,0,0,1.565-1.108L68.4,11.877A1.524,1.524,0,0,0,66.833,10H21.67" fill="none" stroke="#fff" stroke-linecap="round" stroke-width="0.884"/></g><g transform="translate(151.921 52)"><path d="M0,3.557H41.217M8-5.583,11.51,21.244M26.886-5.508,24.051,21.244m-21.1-7.78h35.2" transform="translate(0 5.583)" fill="none" stroke="#fff" stroke-linecap="round" stroke-width="0.884"/></g></g></svg>