<svg xmlns="http://www.w3.org/2000/svg" width="79" height="89.113" viewBox="0 0 79 89.113"><g transform="translate(-1308.894 -989.887)"><path d="M0,79H50.388A38.725,38.725,0,0,0,89.113,40.274,40.274,40.274,0,0,0,48.839,0H0Z" transform="translate(1308.894 1079) rotate(-90)" fill="#96c160"/><path d="M143.79,208.254l-13.641-13.745a2.293,2.293,0,1,0-3.243,3.243l16.884,16.884,16.885-16.884a2.29,2.29,0,1,0-3.24-3.238Z" transform="translate(1204.604 848.001)" fill="#fff" fill-rule="evenodd" opacity="0.605"/><path d="M143.79,190.7l-13.641-13.745a2.293,2.293,0,1,0-3.243,3.243l16.884,16.884L160.675,180.2a2.29,2.29,0,1,0-3.24-3.238Z" transform="translate(1204.604 848.001)" fill="#fff" fill-rule="evenodd"/></g></svg>