<svg xmlns="http://www.w3.org/2000/svg" xmlns:xlink="http://www.w3.org/1999/xlink" width="754.991" height="487.894" viewBox="0 0 754.991 487.894"><defs><clipPath id="a"><rect width="754.991" height="487.894" fill="none"/></clipPath><clipPath id="d"><path d="M726.044,158.272l-20.81,2.446c-19.338,2.272-35.165,5.083-43.427,7.711l-16.487,5.247,15.1,70.519a40.757,40.757,0,0,0-4.94-3.893c-10.341-6.9-23.885-9.246-41.407-7.187-4.677.55-9.836,3-14.653,6.05l-9.028-6.2-10.229,5.466a89.5,89.5,0,0,1-28.19,9.217l-8.019,1.278a33.921,33.921,0,0,0,3.319-19.127,33.06,33.06,0,0,0-36.484-29.15,32.375,32.375,0,0,0-17.461,7.708l-42.226,4.962a70.333,70.333,0,0,0,16.7-16.276,76.091,76.091,0,0,0,14.107-54.284c-4.319-36.75-30.558-58.7-65.293-54.617a37.652,37.652,0,0,0-9.35,2.6l-1.04.471a43.157,43.157,0,0,0-4.835,2.89l-8.706-5.917-10.063,5.156a92.745,92.745,0,0,1-28.64,9.387l-14.836,2.34-.226,2.82c-10.819-5.58-23.91-7.808-38.579-6.084-23.883,2.806-42.771,16.659-52.586,36.21a41.452,41.452,0,0,0-14.078-16.276c-10.308-6.93-23.841-9.3-41.374-7.238a22.723,22.723,0,0,0-3.871.737l-.536-4.557c-1.691-14.391-3.027-25.758-15.847-33.342l-7.932-4.691-8.6,3.3c-8.669,3.325-17.125,5.217-30.159,6.749l-15.532,1.825-.877,10.93A113.428,113.428,0,0,0,72.31,93.292c-36.948,4.342-59.992,30.87-56.038,64.511,1.734,14.76,8.449,24.766,17.028,31.867a24.117,24.117,0,0,0-12.255,9.957l-4.635,7.966,3.363,8.582a240.618,240.618,0,0,1,9.186,28.507l2.62,9.8,9.593,3.3c13.336,4.594,33.768,6.665,48.581,4.924,16.841-1.979,30.643-8.33,40.391-17.827a24.854,24.854,0,0,0,2.446,3.022l6.555,6.722,33.233-3.9a51.4,51.4,0,0,0-3.425,25.434c1.64,13.947,7.366,25.332,14.227,35.093-10.654,12.306-18.9,28.5-16.3,50.678,4.037,34.344,35.579,55.911,75,51.278a97.654,97.654,0,0,0,41.353-14.492c8.521,3.833,19.527,7.338,29.64,6.149,19.827-2.33,28.527-12.476,32.282-21.955.189.438.387.9.554,1.279.55,1.263.979,2.244,1.275,2.908,5.444,12.248,16.186,12.463,19.5,12.214v0c12.98-1.122,56.762-7.139,56.762-7.139l12.806-1.04c.433-.034.872-.078,1.312-.13,13.068-1.536,55.3-19.44,57.409-17.318l6.537,6.565,59.189-6.956,8.809-1.035L687.271,358.4l1.97-3.575a35.362,35.362,0,0,0,18.773,2.648c20.472-2.406,32.916-19.851,30.263-42.422-1.07-9.105-4.324-16.836-9.167-22.675Z" fill="none"/></clipPath><clipPath id="e"><path d="M113.373,87.941,125.8,86.48c13.377-1.571,22.092-3.527,31.079-6.975l6.883-2.639,6.346,3.754c11.2,6.621,12.373,16.638,14,30.5l1.058,9,4.308-1.224a18.976,18.976,0,0,1,3.274-.618c16.588-1.949,29.28.215,38.8,6.615a37.828,37.828,0,0,1,12.792,14.809l3.4,6.833,3.424-6.82c9.6-19.114,27.683-31.554,49.623-34.133,13.706-1.611,25.946.3,36.385,5.686l5.092,2.627.444-5.537,11.869-1.872a96.419,96.419,0,0,0,29.785-9.761l8.05-4.124,8.967,6.1,2.141-1.44a40.118,40.118,0,0,1,4.281-2.579l.938-.428a34.361,34.361,0,0,1,8.323-2.332c32.469-3.816,57.007,16.79,61.06,51.274a72.3,72.3,0,0,1-13.391,51.578,66.256,66.256,0,0,1-15.784,15.4L436.241,218.9l58.7-6.9.887-.767a28.568,28.568,0,0,1,15.41-6.8,29.24,29.24,0,0,1,32.251,25.807,30.119,30.119,0,0,1-2.944,16.981l-3.3,6.631,15.335-2.441a93.3,93.3,0,0,0,29.386-9.621l8.183-4.372,9.189,6.315,2.126-1.344c5.091-3.22,9.485-5.066,13.06-5.485,16.582-1.95,29.289.2,38.849,6.572a37.211,37.211,0,0,1,4.476,3.53l8.812,8.082-16.886-78.826,13.191-4.2c8.039-2.558,23.61-5.313,42.715-7.558l16.649-1.957,3,131.238.848,1.02c4.485,5.407,7.36,12.561,8.315,20.686,2.391,20.341-8.679,36.046-26.921,38.189A31.479,31.479,0,0,1,690.8,351.34l-3.2-1.436-2.718,4.933L502.707,376.246,497.478,371c-2.584-2.6-5.578-1.745-27.893,6.142-11.777,4.164-26.435,9.346-32.664,10.077-.39.046-.781.086-1.175.117l-12.913,1.049-.1.014c-.438.059-43.833,6.013-56.528,7.111-3.29.247-11.4-.23-15.73-9.96-.294-.658-.717-1.63-1.262-2.879L345,372.938l-3.392,8.566c-4.448,11.234-14.267,17.819-29.181,19.571-7.6.893-17.152-1.125-27.63-5.839l-1.882-.845-1.737,1.111a93.3,93.3,0,0,1-39.743,13.916c-37.228,4.376-66.989-15.784-70.768-47.935-2.086-17.748,2.949-33.363,15.393-47.736l1.951-2.252-1.713-2.437c-7.9-11.237-12.207-21.833-13.559-33.346a47.365,47.365,0,0,1,3.171-23.558l2.418-5.97-37.766,4.438-5.244-5.377a20.857,20.857,0,0,1-2.051-2.546l-2.572-3.68-3.215,3.133c-9.382,9.14-22.583,14.94-38.175,16.772-14.313,1.681-34.035-.313-46.9-4.743l-7.674-2.641L32.644,243.7a244,244,0,0,0-9.32-28.914l-2.691-6.866,3.709-6.373a20.421,20.421,0,0,1,10.352-8.325l6.021-2.364-4.983-4.124c-9.109-7.539-14.235-17.148-15.673-29.374-3.691-31.411,17.979-56.2,52.7-60.278a109.878,109.878,0,0,1,35.34,2.087l4.3.984Zm40.774-15.557c-8.346,3.2-16.544,5.03-29.239,6.521L106.27,81.1l-.781,9.749A116.111,116.111,0,0,0,71.865,89.5c-39.179,4.6-63.6,32.872-59.381,68.743,1.42,12.086,6.184,22.32,14.183,30.5a26.315,26.315,0,0,0-8.918,8.962l-5.562,9.56,4.036,10.3a237.532,237.532,0,0,1,9.052,28.1l3.143,11.762,11.511,3.965c13.814,4.757,34.956,6.9,50.269,5.1,15.656-1.84,29.224-7.374,39.517-16.08l.144.15,7.865,8.066,29.091-3.418a54.848,54.848,0,0,0-1.649,21.385c1.387,11.8,5.723,23.088,13.236,34.413-12.537,15.465-17.548,32.3-15.308,51.358,4.3,36.541,37.618,59.512,79.234,54.622a101.168,101.168,0,0,0,41.22-13.979c11.15,4.752,21.157,6.647,29.772,5.635,16.994-2,26.406-9.466,31.618-17.179a22.932,22.932,0,0,0,21.878,11.64c2.5-.216,6.092-.606,10.277-1.1,17.147-2.015,44.219-5.725,46.568-6.047l12.691-1.03c.482-.038.969-.087,1.459-.144,7.076-.832,20.925-5.728,34.317-10.463,7.9-2.792,17.53-6.2,21.012-6.881l6.777,6.806,189.746-22.3,1.3-2.367a39.763,39.763,0,0,0,17.491,1.67c22.7-2.668,36.521-21.854,33.606-46.655A47.457,47.457,0,0,0,732.893,291L729.76,154l-24.972,2.935c-19.568,2.3-35.654,5.166-44.138,7.865l-19.784,6.3L654.618,235.3c-10.681-6-24.135-7.955-40.987-5.975-4.15.487-8.876,2.268-14.08,5.3l-8.907-6.123-12.276,6.56a85.709,85.709,0,0,1-26.992,8.814l-1.485.238a37.814,37.814,0,0,0,1.173-14.766,36.878,36.878,0,0,0-40.717-32.492,36.166,36.166,0,0,0-18.591,7.84l-28.378,3.335a76.716,76.716,0,0,0,7.492-8.73A79.9,79.9,0,0,0,485.7,142.309C481.11,103.293,453.171,80,416.17,84.349a41.759,41.759,0,0,0-10.48,2.917l-1.146.52c-.936.46-1.961,1.034-3.1,1.739l-8.485-5.766-12.075,6.187a89.037,89.037,0,0,1-27.494,9.013l-17.8,2.807-.033.4c-10.561-4.229-22.767-5.664-35.656-4.149-22.194,2.608-40.879,14.276-52.213,32.355a44.375,44.375,0,0,0-11.878-11.8c-11.1-7.46-25.471-10.032-43.947-7.86l-.116.014-.058-.493C189.941,95.4,188.437,82.6,173.991,74.054l-9.519-5.628Z" fill="none"/></clipPath><linearGradient id="f" x1="0.013" y1="1.055" x2="0.014" y2="1.055" gradientUnits="objectBoundingBox"><stop offset="0" stop-color="#bc945d"/><stop offset="0.278" stop-color="#946e3f"/><stop offset="0.423" stop-color="#c4995f"/><stop offset="0.557" stop-color="#ebbb79"/><stop offset="0.627" stop-color="#fac984"/><stop offset="0.71" stop-color="#e8b978"/><stop offset="0.874" stop-color="#bb9059"/><stop offset="1" stop-color="#946e3f"/></linearGradient></defs><g clip-path="url(#a)"><g clip-path="url(#a)"><path d="M726.044,158.272l-20.81,2.446c-19.339,2.272-35.165,5.083-43.427,7.711l-16.488,5.247L660.424,244.2a40.857,40.857,0,0,0-4.94-3.893c-10.341-6.9-23.885-9.246-41.407-7.187-4.678.55-9.836,3-14.653,6.05l-9.028-6.2-10.229,5.466a89.5,89.5,0,0,1-28.19,9.217l-8.019,1.278a33.921,33.921,0,0,0,3.319-19.127,33.06,33.06,0,0,0-36.485-29.149,32.367,32.367,0,0,0-17.46,7.707l-42.226,4.962a70.333,70.333,0,0,0,16.7-16.276,76.1,76.1,0,0,0,14.107-54.284c-4.319-36.749-30.558-58.7-65.293-54.617a37.623,37.623,0,0,0-9.351,2.6l-1.039.47a43.4,43.4,0,0,0-4.836,2.89l-8.705-5.916-10.063,5.155a92.69,92.69,0,0,1-28.641,9.387l-14.835,2.34-.227,2.82c-10.818-5.58-23.909-7.808-38.578-6.084-23.883,2.807-42.771,16.659-52.586,36.21a41.452,41.452,0,0,0-14.078-16.276c-10.308-6.93-23.842-9.3-41.374-7.237a22.6,22.6,0,0,0-3.871.736l-.536-4.557c-1.691-14.391-3.027-25.758-15.847-33.342l-7.933-4.691-8.6,3.3c-8.668,3.325-17.124,5.217-30.158,6.749l-15.532,1.825-.877,10.931A113.4,113.4,0,0,0,72.31,93.292c-36.948,4.342-59.992,30.87-56.039,64.511,1.735,14.76,8.45,24.766,17.029,31.867a24.109,24.109,0,0,0-12.255,9.957l-4.635,7.966,3.363,8.582a240.426,240.426,0,0,1,9.185,28.507l2.621,9.8,9.592,3.3c13.337,4.594,33.769,6.665,48.581,4.924,16.842-1.979,30.643-8.33,40.392-17.827a24.854,24.854,0,0,0,2.446,3.022l6.554,6.722,33.234-3.9a51.4,51.4,0,0,0-3.425,25.434c1.639,13.947,7.366,25.332,14.227,35.093-10.654,12.306-18.9,28.5-16.3,50.678,4.036,34.345,35.578,55.911,75,51.278a97.654,97.654,0,0,0,41.352-14.491c8.522,3.832,19.528,7.337,29.641,6.148,19.827-2.33,28.527-12.475,32.281-21.955l.555,1.279c.55,1.263.979,2.244,1.275,2.908,5.444,12.248,16.186,12.463,19.5,12.214v0c12.98-1.123,56.761-7.14,56.761-7.14l12.806-1.04c.433-.034.873-.078,1.313-.13,13.068-1.536,55.3-19.44,57.408-17.318l6.538,6.565,59.189-6.956,8.809-1.035L687.271,358.4l1.97-3.575a35.362,35.362,0,0,0,18.773,2.648c20.472-2.4,32.916-19.851,30.263-42.422-1.07-9.105-4.324-16.836-9.167-22.675Z" fill="#220f36"/><g opacity="0.68"><g clip-path="url(#a)"><g clip-path="url(#d)"><path d="M0,82.852l10.538-1.238q23.8,202.528,47.6,405.042L47.6,487.894,0,82.852" fill="#00833c"/><path d="M278.938,50.22l21.485-2.525q23.789,202.416,47.563,404.716L326.5,454.936Q302.74,252.745,278.938,50.22" fill="#ca1f2a"/><path d="M256.514,463.167l-15.959,1.876Q216.778,262.72,193.008,60.458l15.958-1.876,47.548,404.585" fill="#de7128"/><path d="M391.582,36.988l15.945-1.874q23.788,202.422,47.563,404.713L439.145,441.7Q415.381,239.486,391.582,36.988" fill="#985d97"/><path d="M513.937,432.938l-15.946,1.874Q474.2,232.39,450.428,30.092l15.946-1.874q23.763,202.207,47.563,404.72" fill="#985d97"/><path d="M321.084,455.579,310.661,456.8Q286.882,254.472,263.112,52.209l10.423-1.225q23.754,202.121,47.549,404.6" fill="#ca1f2a"/><path d="M149.433,475.832l-10.354,1.217Q115.309,274.789,91.488,72.1l5.136-.6,5.219-.614q23.8,202.539,47.59,404.949" fill="#91b33b"/><path d="M208.3,468.833l-10.423,1.225Q174.1,267.726,150.333,65.463l10.423-1.225q23.754,202.121,47.549,404.6" fill="#de7128"/><path d="M363.751,450.559l-10.421,1.225q-23.778-202.335-47.548-404.59L316.2,45.97q23.752,202.116,47.548,404.589" fill="#b2265d"/><path d="M219.917,57.161l10.4-1.222q23.79,202.421,47.563,404.713l-10.4,1.222Q243.715,259.668,219.917,57.161" fill="#ca1f2a"/><path d="M540.824,429.768l-10.407,1.223Q506.642,228.682,482.869,26.4l10.407-1.223q23.745,202.051,47.548,404.592" fill="#985d97"/><path d="M304.839,457.516l-10.357,1.217Q270.7,256.386,246.922,54.042l10.357-1.217q23.745,202.054,47.56,404.691" fill="#ca1f2a"/><path d="M375.792,38.85,386.2,37.627q23.773,202.314,47.548,404.6l-10.406,1.223q-23.748-202.058-47.549-404.6" fill="#b2265d"/><path d="M481.957,436.746l-10.35,1.216Q447.841,235.732,424.05,33.293l10.35-1.217q23.752,202.116,47.557,404.67" fill="#b2265d"/><path d="M32.168,79.234l5.29-.622Q61.233,280.924,85.006,483.206l-5.289.622Q55.971,281.772,32.168,79.234" fill="#91b33b"/><path d="M111.863,480.175l-5.288.621Q82.8,278.477,59.027,76.209l5.288-.622q23.743,202.04,47.548,404.588" fill="#00833c"/><path d="M122.529,478.936l-5.278.62Q93.461,277.134,69.687,74.838l5.279-.621q23.763,202.2,47.563,404.719" fill="#91b33b"/><path d="M288.944,459.362l-5.284.621Q259.882,257.659,236.112,55.4l5.284-.621q23.746,202.051,47.548,404.587" fill="#de7128"/><path d="M117.937,69.154l5.287-.621Q147,270.847,170.773,473.128l-5.287.622q-23.748-202.068-47.549-404.6" fill="#de7128"/><path d="M379.966,448.646l-5.3.623Q350.886,246.931,327.119,44.687l5.3-.623q23.752,202.108,47.547,404.582" fill="#ca1f2a"/><path d="M417.515,444.234l-5.3.623Q388.437,242.519,364.668,40.275l5.3-.623q23.751,202.106,47.547,404.582" fill="#b2265d"/><path d="M139.687,66.605l4.876-.573q23.778,202.323,47.549,404.594l-4.876.573Q163.485,269.108,139.687,66.605" fill="#91b33b"/><path d="M229.639,466.328l-4.88.574q-23.778-202.329-47.549-404.6l4.88-.573q23.753,202.1,47.549,404.6" fill="#de7128"/><path d="M472.22,27.521l4.866-.572q23.777,202.311,47.549,404.594l-4.866.572Q496.02,230.034,472.22,27.521" fill="#985d97"/><path d="M401.3,446.157l-4.859.571Q372.662,244.405,348.89,42.141l4.859-.571Q377.5,243.63,401.3,446.157" fill="#b2265d"/><path d="M16.39,81.071l4.842-.569Q45.019,282.9,68.794,485.207l-4.842.569Q40.191,283.594,16.39,81.071" fill="#00833c"/><path d="M498.478,24.27l10.538-1.238q23.8,202.528,47.6,405.042l-10.538,1.238L498.478,24.27" fill="#3ca7da"/><path d="M754.992,404.585l-15.959,1.876Q715.257,204.138,691.486,1.876L707.444,0l47.548,404.585" fill="#1777b7"/><path d="M647.911,417.25l-10.354,1.217q-23.77-202.26-47.591-404.949l5.136-.6,5.219-.614q23.8,202.539,47.59,404.949" fill="#1777b7"/><path d="M706.782,410.251l-10.423,1.225q-23.78-202.332-47.549-404.6l10.423-1.225q23.754,202.12,47.549,404.6" fill="#1777b7"/><path d="M530.646,20.652l5.29-.622q23.775,202.312,47.548,404.594l-5.289.622Q554.449,223.19,530.646,20.652" fill="#3ca7da"/><path d="M610.341,421.593l-5.288.621Q581.275,219.9,557.505,17.627L562.793,17q23.743,202.039,47.548,404.588" fill="#3ca7da"/><path d="M621.007,420.354l-5.278.62q-23.79-202.422-47.564-404.718l5.279-.621q23.763,202.2,47.563,404.719" fill="#3ca7da"/><path d="M616.415,10.572l5.287-.621q23.776,202.314,47.549,404.595l-5.287.622Q640.216,213.1,616.415,10.572" fill="#3ca7da"/><path d="M638.165,8.023l4.876-.573q23.778,202.323,47.549,404.594l-4.876.573Q661.963,210.527,638.165,8.023" fill="#1777b7"/><path d="M728.117,407.746l-4.88.574q-23.778-202.329-47.549-404.6l4.88-.573q23.753,202.1,47.549,404.6" fill="#1777b7"/><path d="M514.868,22.489l4.842-.569q23.787,202.4,47.562,404.7l-4.842.569q-23.762-202.182-47.562-404.7" fill="#985d97"/></g></g></g><path d="M37.528,209.215c.474-.815,2.776-2.224,6.146-2.621a9.921,9.921,0,0,1,2.456-.1c7.124,17.006,20.505,25.874,39.229,23.673,10.86-1.276,19.584-7.806,18.2-19.6-3.366-28.648-63.812-16.419-68.345-54.99C32.7,134.232,45.888,115.6,74.536,112.231c15.353-1.8,31.51,1.612,36.1,3.54.99,8.426,3.753,17.4,6.186,26.8a12.847,12.847,0,0,1-8.6,2.719c-4.888-15.751-17.542-21.667-33.832-19.752-10.3,1.21-16.852,8.434-15.686,18.358,3.257,27.712,63.152,14.029,68.1,56.157,2.618,22.282-10.633,40.354-39.281,43.721-11.983,1.408-29.462-.334-40.145-4.014a258.294,258.294,0,0,0-9.854-30.543" fill="#252558"/><path d="M212.549,214.083c3.139-3.976,2.137-4.427-2.528-44.122-1.76-14.979-7.365-22.293-19.536-20.863-5.43.638-11.466,4.195-16.29,8.369l6.535,55.61c.88,7.489,2.918,7.06,14.438,8.174a13.719,13.719,0,0,1-.992,7.71l-47.933,5.633s-2.159-2.214-2.753-7.27c8.6-2.719,12.766-6.056,11.424-17.477l-10.563-89.875c-1.034-8.8-4.36-11.257-14.658-10.047a12.752,12.752,0,0,1-1.993-5.65,13.306,13.306,0,0,1-.12-2.644c14.791-1.738,24.77-4.05,34.76-7.881,4.285,2.534,4.989,5.3,6.617,19.154l4.225,35.95c7.513-7.147,17.041-14.911,21.347-15.417,25.277-2.971,37.4,4.906,40.021,27.187l5.326,45.312c.968,8.239,4.294,7.468,15.209,8.273a13.717,13.717,0,0,1-.992,7.71l-47.934,5.633a13.714,13.714,0,0,1-2.752-7.269,17.264,17.264,0,0,0,9.142-6.2" fill="#252558"/><path d="M302.567,120.74c29.209-3.433,45.739,12.848,48.842,39.249,3.653,31.082-14.854,54.517-42.191,57.73-27.524,3.234-45.8-10.183-49.392-40.7-3.433-29.209,15.217-53.041,42.741-56.276m23.509,46.592c-2.112-17.975-11.8-35.819-26.22-34.124-11.983,1.408-17.272,17.785-14.895,38.007s13.718,35.973,26.076,34.521,17.415-18.182,15.039-38.4" fill="#252558"/><path d="M371.928,240.91c4.946-1.53,7.909-3.777,9.891-6.288,1.818-2.3,2.446-5.033,1.72-11.212l-9.836-83.7c-1.078-9.174-5.462-10.937-14.636-9.859a11.24,11.24,0,0,1-1.971-5.463,14.287,14.287,0,0,1-.143-2.831,111.984,111.984,0,0,0,34.365-11.252c3.094,2.1,4.757,4.946,5.715,11.478,5.672-5.033,14.539-11.96,17.59-13.457a19.039,19.039,0,0,1,4.219-1.255c27.9-3.279,41.531,15.81,44.128,37.9,3.763,32.018-18.566,56.852-39.724,59.338a34.868,34.868,0,0,1-16.586-2.227l2.882,24.529c.44,3.744,1.035,5.573,3.227,6.454,2.379.859,12.06.861,18.514.861a15.359,15.359,0,0,1-.992,7.71l-55.423,6.513a14.332,14.332,0,0,1-2.94-7.247M398.364,131.5l6.8,57.857a23.194,23.194,0,0,0,13.635,2.953c15.167-1.782,21.876-14.15,19.191-36.993-2.794-23.779-12.75-34.189-25.482-32.692-5.243.616-10.233,5-14.143,8.875" fill="#252558"/><path d="M208.822,312.833c-11.618-13.356-19.223-24.38-20.929-38.9-2.249-19.131,12.37-37.908,37.954-40.915,26.277-3.088,39.752,12.153,41.729,28.98,2.6,22.127-13.332,35.683-27.99,48.155,13.99,15.648,29.459,29.954,44.236,40.369,3.756-5.816,6.74-12.242,7.161-18.6.312-3.308-.528-6.481-1.341-9.423-1.41-4.041-7.7-5.872-10.887-7.133,2.1-11.932,10.28-15.93,20.448-16.892a39.018,39.018,0,0,1,7.008,17.871c1.679,14.291-1.943,29.2-9.754,42.274,9.775,5.628,19.848,9.818,27.306,9.643a18.775,18.775,0,0,0,5.07-.6c.378,15.145-11.73,17.5-18.184,18.261-7.836.921-19.862-3.975-29.176-9.657-10.807,9.449-25.22,16.05-41.816,18-30.656,3.6-51.181-11.978-53.836-34.567-2.519-21.436,8.98-34.938,23-46.868m36.451,61.614a52.765,52.765,0,0,0,21.992-7.726c-15.428-11.974-31.533-25.738-44.615-39.623-6.13,7.5-9.9,15.184-8.816,24.4,1.923,16.365,15.765,24.787,31.439,22.945M244.161,263.58c-1.436-12.216-10.18-17.031-17.556-16.164-10.142,1.192-13.98,10.289-12.978,18.818,1.3,11.063,6.275,19.592,14.572,30.535,9.858-9.571,17.533-19.82,15.962-33.189" fill="#252558"/><path d="M312.947,257.523c-5.957-13.537-12.543-14.661-19.6-14.97a20.192,20.192,0,0,1,.717-8.437l54.861-6.447a16.7,16.7,0,0,1,2.841,8.018c-6.818,1.751-17.193,3.919-16.8,7.289a10.461,10.461,0,0,0,1.211,3.844c1.123,3.095,37.563,92.776,38.4,96.664l.561-.066c.773-9.582,14.737-86.2,14.737-86.2l22.262-4.823s29.693,72.18,33.326,83.712l.749-.088c1.984-15.419,11.177-72.917,13.271-84.173.562-3.293,1.135-4.879.915-6.752-.33-2.808-4.185-3.3-17.842-3.218-.55-4.681.574-8.04.9-8.459l43.814-5.149a19.191,19.191,0,0,1,3.028,8c-8.415,2.7-12.436,5.637-15.675,20.065-4.409,20.64-16.84,82.884-22.459,102.907-2.4,8.634-12.393,12.466-17.657,12.895-.991-1.972-28.429-70.691-35.873-88.8-2.975,16.675-12.024,67.283-17.1,83.825-2.589,8.657-10.663,12.643-16.676,13.16-.187.022-36.683-85.287-51.911-122.791" fill="#252558"/><path d="M508.288,360.231a12.834,12.834,0,0,1-2.94-7.248,21.249,21.249,0,0,0,9.891-6.288c1.653-2.092,2.259-5.011,1.533-11.189l-5.149-43.814c-1.1-9.362-5.462-10.938-14.637-9.86a11.592,11.592,0,0,1-1.992-5.65,14.265,14.265,0,0,1-.121-2.643,111.593,111.593,0,0,0,34.364-11.252c4.285,2.533,5.308,6.4,6.453,16.136l7.085,60.291c.506,4.306,1.266,5.925,3.832,6.763,2.754.815,6.168.794,11.73,1.279a13.714,13.714,0,0,1-.992,7.709Zm8.076-112.187c-7.677.9-14.417-4.76-15.363-12.811a13.768,13.768,0,1,1,27.337-3.213c.946,8.052-4.3,15.122-11.974,16.024" fill="#252558"/><path d="M628.308,346.126a14.834,14.834,0,0,1-2.565-7.292c7.688-2.422,11.664-5.736,10.3-17.345-1.3-11.047-2.762-21.885-4.06-32.932-1.761-14.979-7.762-22.437-19.933-21.006-6.366.748-12.645,5.472-15.916,8.324l6.557,55.8c.9,7.676,4.108,7.49,14.439,8.174a12.828,12.828,0,0,1-1.18,7.731l-47.933,5.634a13.725,13.725,0,0,1-2.753-7.27c8.6-2.719,12.766-6.056,11.424-17.478l-5.149-43.814c-1.144-9.736-5.836-10.893-14.449-9.881a10.42,10.42,0,0,1-1.971-5.463,13.37,13.37,0,0,1-.143-2.831,108.949,108.949,0,0,0,34.178-11.23c3.3,2.27,4.779,5.133,5.781,12.039,7.633-7.731,18-14.833,21.368-15.229,25.278-2.971,37.59,4.883,40.209,27.165l5.347,45.5c.968,8.239,4.085,7.3,14.438,8.174a13.719,13.719,0,0,1-.992,7.71Z" fill="#252558"/><path d="M709.86,284.707l-20.735,2.436L667.59,186.6c6.755-2.15,21.365-4.771,39.87-6.946Zm-4.072,53.824c-10.925,1.284-17-6.141-18.332-17.511-1.441-12.263,3.491-20.3,13.524-21.481,10.256-1.2,16.918,5.471,18.359,17.734,1.336,11.37-2.849,20-13.551,21.258" fill="#252558"/><path d="M37.528,209.215c.474-.815,2.776-2.224,6.146-2.621a9.921,9.921,0,0,1,2.456-.1c7.124,17.006,20.505,25.874,39.229,23.673,10.86-1.276,19.584-7.806,18.2-19.6-3.366-28.648-63.812-16.419-68.345-54.99C32.7,134.232,45.888,115.6,74.536,112.231c15.353-1.8,31.51,1.612,36.1,3.54.99,8.426,3.753,17.4,6.186,26.8a12.847,12.847,0,0,1-8.6,2.719c-4.888-15.751-17.542-21.667-33.832-19.752-10.3,1.21-16.852,8.434-15.686,18.358,3.257,27.712,63.152,14.029,68.1,56.157,2.618,22.282-10.633,40.354-39.281,43.721-11.983,1.408-29.462-.334-40.145-4.014a258.294,258.294,0,0,0-9.854-30.543" fill="#fff"/><path d="M212.549,214.083c3.139-3.976,2.137-4.427-2.528-44.122-1.76-14.979-7.365-22.293-19.536-20.863-5.43.638-11.466,4.195-16.29,8.369l6.535,55.61c.88,7.489,2.918,7.06,14.438,8.174a13.719,13.719,0,0,1-.992,7.71l-47.933,5.633s-2.159-2.214-2.753-7.27c8.6-2.719,12.766-6.056,11.424-17.477l-10.563-89.875c-1.034-8.8-4.36-11.257-14.658-10.047a12.752,12.752,0,0,1-1.993-5.65,13.306,13.306,0,0,1-.12-2.644c14.791-1.738,24.77-4.05,34.76-7.881,4.285,2.534,4.989,5.3,6.617,19.154l4.225,35.95c7.513-7.147,17.041-14.911,21.347-15.417,25.277-2.971,37.4,4.906,40.021,27.187l5.326,45.312c.968,8.239,4.294,7.468,15.209,8.273a13.717,13.717,0,0,1-.992,7.71l-47.934,5.633a13.714,13.714,0,0,1-2.752-7.269,17.264,17.264,0,0,0,9.142-6.2" fill="#fff"/><path d="M302.567,120.74c29.209-3.433,45.739,12.848,48.842,39.249,3.653,31.082-14.854,54.517-42.191,57.73-27.524,3.234-45.8-10.183-49.392-40.7-3.433-29.209,15.217-53.041,42.741-56.276m23.509,46.592c-2.112-17.975-11.8-35.819-26.22-34.124-11.983,1.408-17.272,17.785-14.895,38.007s13.718,35.973,26.076,34.521,17.415-18.182,15.039-38.4" fill="#fff"/><path d="M371.928,240.91c4.946-1.53,7.909-3.777,9.891-6.288,1.818-2.3,2.446-5.033,1.72-11.212l-9.836-83.7c-1.078-9.174-5.462-10.937-14.636-9.859a11.24,11.24,0,0,1-1.971-5.463,14.287,14.287,0,0,1-.143-2.831,111.984,111.984,0,0,0,34.365-11.252c3.094,2.1,4.757,4.946,5.715,11.478,5.672-5.033,14.539-11.96,17.59-13.457a19.039,19.039,0,0,1,4.219-1.255c27.9-3.279,41.531,15.81,44.128,37.9,3.763,32.018-18.566,56.852-39.724,59.338a34.868,34.868,0,0,1-16.586-2.227l2.882,24.529c.44,3.744,1.035,5.573,3.227,6.454,2.379.859,12.06.861,18.514.861a15.359,15.359,0,0,1-.992,7.71l-55.423,6.513a14.332,14.332,0,0,1-2.94-7.247M398.364,131.5l6.8,57.857a23.194,23.194,0,0,0,13.635,2.953c15.167-1.782,21.876-14.15,19.191-36.993-2.794-23.779-12.75-34.189-25.482-32.692-5.243.616-10.233,5-14.143,8.875" fill="#fff"/><path d="M208.822,312.833c-11.618-13.356-19.223-24.38-20.929-38.9-2.249-19.131,12.37-37.908,37.954-40.915,26.277-3.088,39.752,12.153,41.729,28.98,2.6,22.127-13.332,35.683-27.99,48.155,13.99,15.648,29.459,29.954,44.236,40.369,3.756-5.816,6.74-12.242,7.161-18.6.312-3.308-.528-6.481-1.341-9.423-1.41-4.041-7.7-5.872-10.887-7.133,2.1-11.932,10.28-15.93,20.448-16.892a39.018,39.018,0,0,1,7.008,17.871c1.679,14.291-1.943,29.2-9.754,42.274,9.775,5.628,19.848,9.818,27.306,9.643a18.775,18.775,0,0,0,5.07-.6c.378,15.145-11.73,17.5-18.184,18.261-7.836.921-19.862-3.975-29.176-9.657-10.807,9.449-25.22,16.05-41.816,18-30.656,3.6-51.181-11.978-53.836-34.567-2.519-21.436,8.98-34.938,23-46.868m36.451,61.614a52.765,52.765,0,0,0,21.992-7.726c-15.428-11.974-31.533-25.738-44.615-39.623-6.13,7.5-9.9,15.184-8.816,24.4,1.923,16.365,15.765,24.787,31.439,22.945M244.161,263.58c-1.436-12.216-10.18-17.031-17.556-16.164-10.142,1.192-13.98,10.289-12.978,18.818,1.3,11.063,6.275,19.592,14.572,30.535,9.858-9.571,17.533-19.82,15.962-33.189" fill="#fff"/><path d="M312.947,257.523c-5.957-13.537-12.543-14.661-19.6-14.97a20.192,20.192,0,0,1,.717-8.437l54.861-6.447a16.7,16.7,0,0,1,2.841,8.018c-6.818,1.751-17.193,3.919-16.8,7.289a10.461,10.461,0,0,0,1.211,3.844c1.123,3.095,37.563,92.776,38.4,96.664l.561-.066c.773-9.582,14.737-86.2,14.737-86.2l22.262-4.823s29.693,72.18,33.326,83.712l.749-.088c1.984-15.419,11.177-72.917,13.271-84.173.562-3.293,1.135-4.879.915-6.752-.33-2.808-4.185-3.3-17.842-3.218-.55-4.681.574-8.04.9-8.459l43.814-5.149a19.191,19.191,0,0,1,3.028,8c-8.415,2.7-12.436,5.637-15.675,20.065-4.409,20.64-16.84,82.884-22.459,102.907-2.4,8.634-12.393,12.466-17.657,12.895-.991-1.972-28.429-70.691-35.873-88.8-2.975,16.675-12.024,67.283-17.1,83.825-2.589,8.657-10.663,12.643-16.676,13.16-.187.022-36.683-85.287-51.911-122.791" fill="#fff"/><path d="M508.288,360.231a12.834,12.834,0,0,1-2.94-7.248,21.249,21.249,0,0,0,9.891-6.288c1.653-2.092,2.259-5.011,1.533-11.189l-5.149-43.814c-1.1-9.362-5.462-10.938-14.637-9.86a11.592,11.592,0,0,1-1.992-5.65,14.265,14.265,0,0,1-.121-2.643,111.593,111.593,0,0,0,34.364-11.252c4.285,2.533,5.308,6.4,6.453,16.136l7.085,60.291c.506,4.306,1.266,5.925,3.832,6.763,2.754.815,6.168.794,11.73,1.279a13.714,13.714,0,0,1-.992,7.709Zm8.076-112.187c-7.677.9-14.417-4.76-15.363-12.811a13.768,13.768,0,1,1,27.337-3.213c.946,8.052-4.3,15.122-11.974,16.024" fill="#fff"/><path d="M628.308,346.126a14.834,14.834,0,0,1-2.565-7.292c7.688-2.422,11.664-5.736,10.3-17.345-1.3-11.047-2.762-21.885-4.06-32.932-1.761-14.979-7.762-22.437-19.933-21.006-6.366.748-12.645,5.472-15.916,8.324l6.557,55.8c.9,7.676,4.108,7.49,14.439,8.174a12.828,12.828,0,0,1-1.18,7.731l-47.933,5.634a13.725,13.725,0,0,1-2.753-7.27c8.6-2.719,12.766-6.056,11.424-17.478l-5.149-43.814c-1.144-9.736-5.836-10.893-14.449-9.881a10.42,10.42,0,0,1-1.971-5.463,13.37,13.37,0,0,1-.143-2.831,108.949,108.949,0,0,0,34.178-11.23c3.3,2.27,4.779,5.133,5.781,12.039,7.633-7.731,18-14.833,21.368-15.229,25.278-2.971,37.59,4.883,40.209,27.165l5.347,45.5c.968,8.239,4.085,7.3,14.438,8.174a13.719,13.719,0,0,1-.992,7.71Z" fill="#fff"/><path d="M709.86,284.707l-20.735,2.436L667.59,186.6c6.755-2.15,21.365-4.771,39.87-6.946Zm-4.072,53.824c-10.925,1.284-17-6.141-18.332-17.511-1.441-12.263,3.491-20.3,13.524-21.481,10.256-1.2,16.918,5.471,18.359,17.734,1.336,11.37-2.849,20-13.551,21.258" fill="#fff"/></g><g clip-path="url(#e)"><rect width="772.931" height="437.031" transform="matrix(0.993, -0.117, 0.117, 0.993, -32.705, 73.241)" fill="url(#f)"/></g></g></svg>